<svg width="200" height="200" viewBox="0 0 200 200" fill="none" xmlns="http://www.w3.org/2000/svg">
<path d="M149.6 97.4C148.7 96.3 147.4 95.7 146.1 95.7C143.7 95.7 141.7 97.8 141.2 100.6C137.7 122.8 120.4 138.9 100.1 138.9C79.8 138.9 62.5 122.8 59 100.6C58.6 97.8 56.5 95.7 54.1 95.7C52.8 95.7 51.6 96.3 50.6 97.4C49.4 98.8 48.9 100.8 49.2 102.7C53.6 129.9 75 149.7 100 149.7C125 149.7 146.4 129.9 150.8 102.7C151.3 100.8 150.8 98.8 149.6 97.4Z" fill="#F7C3C3"/>
<path d="M161.3 38.9C145.1 22.7 123.1 13.5 100.2 13.6C77.3 13.6 55.3 22.7 39.1 38.9C31.0469 46.9067 24.6569 56.4271 20.2977 66.9132C15.9385 77.3993 13.6962 88.6439 13.7 100C13.7 122.9 22.8 144.9 39 161.1C55.2 177.3 77.2 186.5 100.1 186.4C123 186.4 145 177.3 161.2 161.1C177.4 144.9 186.6 122.9 186.5 100C186.7 77.1 177.6 55.1 161.3 38.9ZM153.7 153.5C139.4 167.8 120.4 175.7 100.2 175.7C80.1 175.8 60.9 167.8 46.7 153.5C32.4 139.2 24.5 120.2 24.5 100C24.4 79.9 32.4 60.7 46.7 46.5C61 32.2 80 24.3 100.2 24.3C120.3 24.2 139.5 32.2 153.7 46.5C168 60.8 175.9 79.8 175.9 100C175.9 120.1 167.9 139.4 153.7 153.5Z" fill="#F7C3C3"/>
</svg>
