<svg width="200" height="200" viewBox="0 0 200 200" fill="none" xmlns="http://www.w3.org/2000/svg">
<path d="M132.402 86.7305C137.146 88.8047 139.311 94.332 137.236 99.0762C130.82 113.75 116.297 123.438 100 123.438C83.7031 123.438 69.1797 113.75 62.7637 99.0762C60.6895 94.332 62.8535 88.8047 67.5977 86.7305C72.0625 84.7773 77.2207 86.5801 79.543 90.7539L79.9434 91.5645C83.4004 99.4707 91.2207 104.688 100 104.688C108.34 104.688 115.814 99.9805 119.506 92.7305L120.057 91.5645C122.131 86.8203 127.658 84.6562 132.402 86.7305ZM100 20.3125C65.4824 20.3125 37.5 48.2949 37.5 82.8125C37.5 117.33 65.4824 145.312 100 145.312C134.518 145.312 162.5 117.33 162.5 82.8125C162.5 48.2949 134.518 20.3125 100 20.3125ZM100 1.5625C144.873 1.5625 181.25 37.9395 181.25 82.8125C181.25 112.656 165.16 138.742 141.182 152.867C157.848 159.211 172.904 169.391 185.152 182.719C188.656 186.531 188.406 192.461 184.594 195.965C180.781 199.469 174.852 199.219 171.348 195.406C153.107 175.559 127.488 164.062 100 164.062C72.5117 164.062 46.8926 175.559 28.6523 195.406C25.1484 199.219 19.2187 199.469 15.4062 195.965C11.5937 192.461 11.3437 186.531 14.8477 182.719C27.0937 169.393 42.1484 159.215 58.8184 152.865C34.8398 138.742 18.75 112.656 18.75 82.8125C18.75 37.9395 55.127 1.5625 100 1.5625Z" fill="#F7C3C3"/>
</svg>
