<svg width="200" height="200" viewBox="0 0 200 200" fill="none" xmlns="http://www.w3.org/2000/svg">
<path d="M100.005 88.7881C80.2104 88.7881 64.1059 72.5529 64.1059 52.5973C64.1059 32.6416 80.2104 16.4062 100.005 16.4062C119.801 16.4062 135.905 32.6414 135.905 52.5971C135.905 72.5527 119.801 88.7881 100.005 88.7881ZM160.859 183.594C167.454 183.594 173.361 177.198 174.905 168.387C175.707 163.801 175.191 159.277 173.454 155.651C171.649 151.876 168.714 149.451 165.187 148.824C164.609 148.721 164.024 148.67 163.437 148.67C161.078 148.67 158.779 149.475 156.694 151.018L139.193 147.908C139.161 136.593 138.447 127.534 137.016 120.304C137.368 120.09 137.718 119.872 138.067 119.652C149.102 112.666 158.224 102.737 164.446 90.9375C167.783 84.6059 165.38 76.7158 159.087 73.3488C157.218 72.349 155.115 71.8205 153.008 71.8205C148.196 71.8205 143.808 74.4734 141.554 78.7445C136.968 87.4443 130.139 94.4648 121.805 99.0471C115.073 102.748 107.522 104.704 99.9676 104.704C92.3955 104.704 84.8273 102.737 78.0805 99.0148C69.8063 94.4525 63.015 87.483 58.441 78.8594C56.1842 74.6059 51.801 71.9635 47.0025 71.9635C44.8842 71.9635 42.7725 72.4971 40.8953 73.5068C34.6092 76.89 32.2254 84.7867 35.5811 91.1086C41.8139 102.861 50.9316 112.749 61.9484 119.704C62.2377 119.886 62.5307 120.068 62.826 120.249C61.4203 127.322 60.7029 136.144 60.6404 147.119L43.3068 150.198C41.2213 148.655 38.9221 147.85 36.5635 147.85C35.9777 147.85 35.3889 147.902 34.8129 148.004C31.2867 148.631 28.351 151.056 26.5475 154.828C24.809 158.457 24.2934 162.981 25.0955 167.568C26.6395 176.379 32.5467 182.774 39.1418 182.774C39.7279 182.774 40.3174 182.722 40.893 182.62L77.7217 176.079C83.8357 178.975 91.4736 180.5 99.9152 180.5C107.89 180.5 114.927 179.204 120.856 176.647L159.107 183.44C159.683 183.542 160.273 183.594 160.859 183.594C160.859 183.594 160.858 183.594 160.859 183.594Z" fill="#F7CACA"/>
<path d="M99.915 178.546C89.2816 178.546 80.2414 176.12 73.7723 171.528C66.4561 166.336 62.5889 158.445 62.5889 148.707C62.5889 143.055 62.7631 137.866 63.1063 133.286L63.3451 130.101L66.0715 131.765C66.7737 132.193 67.4841 132.607 68.2023 133.008C77.9236 138.423 88.9084 141.286 99.9674 141.286C110.993 141.286 121.946 138.44 131.644 133.055C132.359 132.659 133.066 132.248 133.764 131.824L136.489 130.166L136.727 133.346C137.068 137.903 137.241 143.071 137.241 148.707C137.241 158.444 133.374 166.336 126.058 171.528C119.589 176.12 110.549 178.546 99.915 178.546Z" fill="#F7CACA"/>
<path d="M99.9129 169.749C99.7496 169.749 99.4377 169.712 99.1828 169.464L99.1258 169.409L88.3248 160.505L88.2994 160.481C86.9615 159.188 86.2315 157.482 86.2434 155.677C86.2555 153.871 87.0096 152.172 88.3674 150.894C89.7711 149.575 91.6379 148.848 93.6221 148.848C95.4824 148.848 97.2641 149.5 98.6393 150.682L99.9127 151.777L101.186 150.682C102.561 149.5 104.343 148.848 106.204 148.848C108.188 148.848 110.054 149.575 111.46 150.895L111.538 150.969C112.871 152.261 113.6 153.967 113.587 155.771C113.574 157.558 112.834 159.24 111.503 160.512L100.695 169.413L100.633 169.473C100.443 169.652 100.188 169.749 99.9129 169.749Z" fill="#F7CACA"/>
<path d="M100.005 92.6943C121.99 92.6943 139.811 74.7422 139.811 52.5973C139.811 30.4523 121.99 12.5 100.005 12.5C78.0211 12.5 60.1996 30.4521 60.1996 52.5971C60.1996 74.742 78.0213 92.6943 100.005 92.6943ZM77.4029 29.7482C83.4436 23.6635 91.4705 20.3125 100.005 20.3125C108.54 20.3125 116.568 23.6635 122.608 29.7482C128.664 35.8482 131.999 43.9629 131.999 52.5971C131.999 61.2313 128.664 69.3459 122.608 75.4459C116.568 81.5307 108.541 84.8816 100.005 84.8816C91.4705 84.8816 83.4434 81.5307 77.4027 75.4459C71.3471 69.3459 68.0119 61.2313 68.0119 52.5971C68.0119 43.9629 71.3473 35.8482 77.4029 29.7482ZM176.976 153.961C174.65 149.095 170.602 145.819 165.871 144.978C165.067 144.835 164.253 144.764 163.437 144.763C160.828 144.763 158.234 145.506 155.859 146.902L143.07 144.63C142.937 135.841 142.363 128.434 141.328 122.195C152.413 114.893 161.582 104.742 167.9 92.7598C170 88.7764 170.435 84.2098 169.125 79.9004C167.811 75.5791 164.901 72.0293 160.93 69.9047C158.495 68.6023 155.756 67.9143 153.008 67.9141C146.743 67.9137 141.03 71.3648 138.099 76.9209C133.87 84.9441 127.585 91.4109 119.922 95.6238C113.765 99.0086 106.865 100.798 99.9672 100.798C93.0533 100.798 86.1377 98.9984 79.968 95.5947C72.359 91.3992 66.109 84.9797 61.892 77.0291C58.9553 71.4943 53.25 68.0568 47.0022 68.0568C44.24 68.0568 41.4885 68.7516 39.0449 70.0662C35.0777 72.2014 32.176 75.7586 30.8731 80.0834C29.5732 84.3977 30.0199 88.9639 32.1311 92.941C38.425 104.808 47.5262 114.873 58.5123 122.134C57.5025 128.199 56.9281 135.369 56.7727 143.838L44.1414 146.082C41.7668 144.686 39.1723 143.943 36.5637 143.943C35.749 143.943 34.9301 144.015 34.1289 144.158C29.3984 144.998 25.3498 148.275 23.0213 153.146C20.9373 157.497 20.3061 162.859 21.2471 168.239C22.0795 172.989 24.0186 177.246 26.8553 180.553C30.2445 184.504 34.6078 186.679 39.1416 186.679C39.9563 186.679 40.7758 186.607 41.5773 186.465L77.2082 180.137C80.1225 181.411 83.3066 182.411 86.7096 183.118C90.8162 183.972 95.2592 184.405 99.915 184.405C107.941 184.405 115.12 183.157 121.298 180.691L158.424 187.285C159.228 187.428 160.042 187.499 160.858 187.499C165.392 187.499 169.756 185.324 173.145 181.373C175.981 178.066 177.921 173.809 178.753 169.062C179.694 163.679 179.063 158.317 176.976 153.961ZM39.032 89.2781C36.6762 84.84 38.3408 79.3176 42.7467 76.9465C44.1045 76.216 45.5639 75.8695 47.0025 75.8695C48.6465 75.8705 50.2591 76.3199 51.6667 77.1693C53.0743 78.0187 54.2235 79.236 54.9906 80.69C59.9953 90.1256 67.4318 97.6037 76.1945 102.435C83.4229 106.423 91.5561 108.61 99.9678 108.61C108.361 108.61 116.473 106.436 123.687 102.47C132.511 97.6182 139.993 90.0836 145.01 80.566C145.775 79.1068 146.925 77.8847 148.335 77.0317C149.744 76.1787 151.36 75.7274 153.008 75.7266C154.439 75.7268 155.893 76.0699 157.245 76.7932C161.656 79.1533 163.333 84.6705 160.99 89.1158C155.086 100.312 146.438 109.729 135.978 116.351C135.271 116.798 134.557 117.232 133.834 117.653C133.538 117.812 133.291 118.048 133.118 118.336C132.946 118.624 132.854 118.953 132.855 119.289C132.855 119.426 132.871 119.559 132.899 119.688V119.69C133.506 122.464 134.005 125.605 134.387 129.159L132.75 130.155C132.074 130.566 131.39 130.963 130.699 131.346C121.288 136.572 110.662 139.333 99.968 139.333C89.2408 139.333 78.585 136.556 69.1521 131.301C68.457 130.913 67.7694 130.512 67.0898 130.098L65.451 129.098C65.832 125.574 66.3279 122.457 66.9305 119.703C66.9704 119.551 66.9909 119.395 66.9914 119.238C66.9914 118.553 66.6188 117.956 66.066 117.634C66.0635 117.633 66.0619 117.631 66.0592 117.63C65.3771 117.232 64.7019 116.822 64.034 116.4C53.5938 109.81 44.9469 100.431 39.032 89.2781ZM120.352 172.589C120.008 172.751 119.659 172.907 119.306 173.059L119.215 173.098C118.859 173.25 118.5 173.397 118.136 173.539L118.111 173.548C117.754 173.687 117.396 173.819 117.035 173.946C117.004 173.957 116.972 173.969 116.941 173.98C116.575 174.108 116.208 174.23 115.838 174.347C115.797 174.36 115.756 174.373 115.714 174.386C115.356 174.498 114.996 174.606 114.634 174.709C114.612 174.715 114.591 174.722 114.569 174.728C114.194 174.833 113.816 174.934 113.438 175.029C113.376 175.045 113.313 175.061 113.25 175.076C112.41 175.285 111.564 175.47 110.714 175.631C110.327 175.704 109.937 175.775 109.544 175.84C109.517 175.844 109.49 175.848 109.463 175.853C109.093 175.913 108.719 175.969 108.344 176.022C108.265 176.034 108.187 176.045 108.108 176.056C107.717 176.11 107.323 176.16 106.926 176.205C106.861 176.212 106.796 176.219 106.731 176.226C106.374 176.266 106.015 176.303 105.654 176.336C105.581 176.342 105.509 176.35 105.436 176.356C105.037 176.391 104.636 176.422 104.232 176.449C104.147 176.455 104.061 176.46 103.975 176.466C103.602 176.49 103.229 176.51 102.856 176.527C102.805 176.529 102.754 176.532 102.704 176.534C102.196 176.556 101.689 176.571 101.181 176.58C100.761 176.588 100.339 176.594 99.9156 176.594C99.4578 176.594 99.0027 176.587 98.5492 176.578C98.4656 176.576 98.3818 176.575 98.2984 176.573C97.8643 176.563 97.4302 176.548 96.9963 176.528C96.9135 176.524 96.8311 176.52 96.7483 176.516C96.301 176.494 95.8553 176.469 95.4131 176.438H95.4121C94.9699 176.407 94.5313 176.369 94.0941 176.328C94.0129 176.321 93.9314 176.313 93.8504 176.305C93.4301 176.264 93.0123 176.219 92.5973 176.169C92.5186 176.159 92.4402 176.149 92.3615 176.139C91.5002 176.032 90.6506 175.905 89.8139 175.758C89.7389 175.745 89.6635 175.732 89.5887 175.719C89.1869 175.646 88.7861 175.569 88.3863 175.487C88.316 175.472 88.2461 175.457 88.176 175.443C87.3581 175.271 86.5452 175.076 85.7381 174.859C85.6758 174.842 85.6133 174.825 85.5512 174.808C85.1642 174.702 84.7788 174.59 84.3951 174.473C84.3399 174.456 84.285 174.439 84.2297 174.421C83.4448 174.178 82.6678 173.91 81.9 173.617L81.7731 173.569C81.3987 173.425 81.0269 173.274 80.6576 173.117L80.559 173.074C79.8054 172.752 79.064 172.401 78.3365 172.023C70.2328 167.808 64.9152 160.567 64.5637 149.849C64.5607 149.756 64.5563 149.665 64.5539 149.573C64.5466 149.285 64.5429 148.996 64.5428 148.708V148.708C64.5428 148.331 64.5436 147.958 64.5451 147.587C64.5455 147.471 64.5465 147.358 64.5471 147.243C64.5484 146.989 64.5498 146.735 64.552 146.483C64.5531 146.347 64.5547 146.213 64.5561 146.078C64.5584 145.847 64.5607 145.617 64.5635 145.389L64.5691 144.986C64.5725 144.757 64.5758 144.53 64.5797 144.304C64.5818 144.175 64.5844 144.047 64.5867 143.919C64.5979 143.331 64.6111 142.744 64.6264 142.156L64.6348 141.848C64.642 141.586 64.6498 141.326 64.658 141.068L64.665 140.842C64.6748 140.541 64.6854 140.242 64.6963 139.945L64.6998 139.849C64.785 137.588 64.9045 135.453 65.0563 133.433C65.7795 133.874 66.5112 134.301 67.2512 134.714C77.2822 140.302 88.5184 143.24 99.968 143.24C111.385 143.24 122.585 140.32 132.593 134.763C133.329 134.355 134.058 133.932 134.78 133.493L134.792 133.656C134.827 134.127 134.859 134.598 134.889 135.069C134.9 135.23 134.91 135.392 134.92 135.554C134.928 135.691 134.937 135.828 134.945 135.966C134.957 136.17 134.968 136.375 134.98 136.581L134.997 136.888C135.031 137.524 135.062 138.17 135.09 138.827L135.095 138.943C135.107 139.232 135.119 139.523 135.13 139.816C135.133 139.897 135.136 139.979 135.139 140.061C135.148 140.311 135.157 140.562 135.165 140.815C135.169 140.92 135.172 141.025 135.175 141.13C135.193 141.708 135.209 142.286 135.222 142.864C135.239 143.57 135.252 144.276 135.262 144.982L135.268 145.394C135.271 145.622 135.273 145.852 135.275 146.083C135.276 146.217 135.278 146.35 135.279 146.485C135.281 146.735 135.282 146.987 135.284 147.239C135.284 147.356 135.285 147.472 135.286 147.59C135.287 147.96 135.288 148.332 135.288 148.707C135.288 149.043 135.283 149.378 135.272 149.713C135.266 149.947 135.257 150.179 135.246 150.409C135.244 150.447 135.242 150.486 135.24 150.525C134.665 161.362 128.92 168.554 120.353 172.589L120.352 172.589ZM40.2098 178.773C39.8572 178.836 39.4999 178.867 39.1418 178.867C34.5803 178.867 30.1514 173.79 28.943 166.894C28.2609 162.993 28.7439 159.284 30.0701 156.516C31.2697 154.006 33.1588 152.265 35.4965 151.85C35.8486 151.787 36.2056 151.756 36.5633 151.756C38.5447 151.756 40.5018 152.715 42.1801 154.365L60.7123 151.073C61.2969 160.335 65.3486 167.891 72.5234 173.035L40.2098 178.773ZM171.057 167.714C169.849 174.61 165.42 179.688 160.858 179.688C160.5 179.688 160.143 179.656 159.79 179.593L126.397 173.663C126.663 173.486 126.927 173.306 127.188 173.121C134.235 168.12 138.298 160.81 139.061 151.852L157.82 155.185C159.499 153.534 161.455 152.576 163.437 152.576C163.792 152.576 164.148 152.607 164.504 152.67C166.841 153.085 168.73 154.826 169.93 157.336C171.256 160.104 171.739 163.813 171.057 167.714ZM112.797 149.472C110.972 147.758 108.589 146.896 106.203 146.896C103.955 146.896 101.704 147.661 99.9125 149.201C98.1211 147.661 95.8697 146.896 93.6219 146.896C91.2355 146.896 88.8529 147.758 87.0283 149.472C83.4111 152.877 83.3725 158.435 86.942 161.885C86.9705 161.913 86.9994 161.94 87.0283 161.968L97.8221 170.866C98.3957 171.423 99.1541 171.702 99.9125 171.702C100.654 171.702 101.396 171.435 101.966 170.901L102.003 170.866L112.796 161.977C116.416 158.574 116.459 153.017 112.893 149.563C112.861 149.533 112.829 149.502 112.797 149.472ZM110.201 159.054L99.9129 167.527L89.6266 159.047C88.6957 158.132 88.1883 156.942 88.1965 155.69C88.2049 154.423 88.741 153.224 89.7027 152.319C90.7447 151.341 92.1365 150.802 93.6221 150.802C95.0154 150.802 96.3449 151.285 97.3658 152.163L99.9127 154.354L102.46 152.163C103.48 151.285 104.81 150.802 106.203 150.802C107.689 150.802 109.081 151.341 110.121 152.317C110.139 152.335 110.158 152.353 110.176 152.37C111.125 153.289 111.643 154.492 111.634 155.757C111.625 156.99 111.117 158.156 110.201 159.054Z" fill="#F7CACA"/>
</svg>
