<svg width="200" height="200" viewBox="0 0 200 200" fill="none" xmlns="http://www.w3.org/2000/svg">
<path d="M78.2727 101.783C74.919 101.783 72.2 104.502 72.2 107.855V113.78C72.2 117.133 74.9192 119.852 78.2727 119.852C81.6263 119.852 84.3454 117.133 84.3454 113.78V107.855C84.3454 104.502 81.6263 101.783 78.2727 101.783Z" fill="#F7C3C3"/>
<path d="M121.621 101.783C118.267 101.783 115.548 104.502 115.548 107.855V113.78C115.548 117.133 118.267 119.852 121.621 119.852C124.974 119.852 127.693 117.133 127.693 113.78V107.855C127.694 104.502 124.974 101.783 121.621 101.783Z" fill="#F7C3C3"/>
<path d="M114.923 129.285C112.15 127.458 108.396 128.235 106.532 130.987C106.506 131.025 103.885 134.828 99.8867 134.828C95.9993 134.828 93.5817 131.308 93.4176 131.062C91.6337 128.256 87.9182 127.404 85.0905 129.164C82.241 130.934 81.3662 134.678 83.1364 137.527C85.3157 141.035 91.2977 146.974 99.8869 146.974C108.434 146.974 114.489 141.08 116.72 137.598C118.512 134.799 117.7 131.113 114.923 129.285Z" fill="#F7C3C3"/>
<path d="M71.6074 42.9879C74.9612 42.9879 77.6801 40.2687 77.6801 36.9152V34.8909H122.213V36.9152C122.213 40.2689 124.932 42.9879 128.286 42.9879C131.64 42.9879 134.359 40.2687 134.359 36.9152V18.6969C134.359 15.3432 131.64 12.6242 128.286 12.6242C124.932 12.6242 122.213 15.3434 122.213 18.6969V22.7454H77.6801V18.6969C77.6801 15.3432 74.961 12.6242 71.6074 12.6242C68.2539 12.6242 65.5348 15.3434 65.5348 18.6969V36.915C65.5348 40.2687 68.2539 42.9879 71.6074 42.9879Z" fill="#F7C3C3"/>
<path d="M152.28 19.5382C148.927 19.5382 146.208 22.2573 146.208 25.6108C146.208 28.9644 148.927 31.6835 152.28 31.6835C162.449 31.6835 170.721 40.1194 170.721 50.4888V74.1301H29.1726V50.4748C29.1726 40.1056 37.4444 31.6695 47.6131 31.6695C50.9668 31.6695 53.6858 28.9504 53.6858 25.5969C53.6858 22.2433 50.9666 19.5242 47.6131 19.5242C30.7481 19.5242 17.0273 33.4082 17.0273 50.4748V156.536C17.0273 173.602 30.7481 187.487 47.6121 187.487L152.28 187.501C169.145 187.501 182.866 173.616 182.866 156.549V50.4888C182.866 33.4221 169.145 19.5382 152.28 19.5382ZM152.281 175.356L47.6131 175.342C37.4444 175.342 29.1726 166.906 29.1726 156.536V86.2755H170.721V156.549C170.721 166.92 162.449 175.356 152.281 175.356Z" fill="#F7C3C3"/>
</svg>
