<svg width="200" height="200" viewBox="0 0 200 200" fill="none" xmlns="http://www.w3.org/2000/svg">
<path d="M101.667 135.417C90.8333 135.417 80.8333 132.083 72.5 125.833C69.5833 123.75 69.1667 120 71.25 117.083C73.3333 114.167 77.0833 113.75 80 115.833C86.25 120.417 93.75 122.917 101.667 122.917C109.583 122.917 117.083 120.417 123.333 115.833C126.25 113.75 130 114.167 132.083 117.083C134.167 120 133.75 123.75 130.833 125.833C122.5 132.083 112.5 135.417 101.667 135.417Z" fill="#F7C3C3"/>
<path d="M114.167 166.667C109.583 166.667 105.833 162.917 105.833 158.333C105.833 153.75 109.583 150 114.167 150C123.75 150 132.917 147.917 141.667 144.167C145.833 142.083 150.833 144.167 152.5 148.333C154.583 152.5 152.5 157.5 148.333 159.167C137.917 164.167 126.25 166.667 114.167 166.667Z" fill="#F7C3C3"/>
<path d="M30.8333 104.167C17.0833 102.5 7.08334 90.4167 8.75 77.5C10.4167 64.5833 23.3333 55 37.0833 56.6667M163.333 59.1667C177.083 56.6667 190.417 65.4167 192.917 78.3333C195.417 91.25 186.25 103.75 172.5 106.25" fill="#F7C3C3"/>
<path d="M146.25 156.667C144.167 156.667 142.5 155.833 141.25 154.167C139.167 151.25 139.583 147.5 142.5 145.417C157.917 133.75 166.667 116.667 166.667 98.3333C166.667 65 137.917 37.9167 102.083 37.9167C66.25 37.9167 37.5 65 37.5 98.3333C37.5 101.667 34.5833 104.583 31.25 104.583C27.9167 104.583 25 101.667 25 98.3333C25 58.3333 59.1667 25.4167 101.667 25.4167C144.167 25.4167 178.75 57.9167 178.75 98.3333C178.75 120.417 168.333 141.25 149.583 155.417C148.75 156.25 147.5 156.667 146.25 156.667Z" fill="#F7C3C3"/>
</svg>
