<svg width="27" height="26" viewBox="0 0 27 26" fill="none" xmlns="http://www.w3.org/2000/svg">
<path d="M21.0883 5.61365H17.4706V6.43435H17.963V10.4722C17.963 10.6528 18.091 10.8005 18.2453 10.8005H20.3069C20.4645 10.8005 20.5893 10.6528 20.5893 10.4722V6.43435H21.0817V5.61365H21.0883Z" fill="#EE9B9B"/>
<path d="M13.5476 4.46466L2.87842 12.2318H24.2168L13.5476 4.46466Z" fill="#FDDFDF"/>
<path d="M21.3279 22.8156H5.76731C5.58675 22.8156 5.43903 22.6679 5.43903 22.4874V12.3106C5.43903 12.13 5.58675 11.9823 5.76731 11.9823H21.3279C21.5085 11.9823 21.6562 12.13 21.6562 12.3106V22.4874C21.6562 22.6679 21.5118 22.8156 21.3279 22.8156Z" fill="#FDDFDF"/>
</svg>
