<svg width="200" height="200" viewBox="0 0 200 200" fill="none" xmlns="http://www.w3.org/2000/svg">
<path d="M158.371 43.1818H130.543V49.495H134.331V80.5556C134.331 81.9444 135.316 83.0808 136.503 83.0808H152.361C153.573 83.0808 154.533 81.9444 154.533 80.5556V49.495H158.321V43.1818H158.371Z" fill="#EE9B9B"/>
<path d="M100.366 34.3434L18.2955 94.0909H182.437L100.366 34.3434Z" fill="#FDDFDF"/>
<path d="M160.215 175.505H40.5177C39.1288 175.505 37.9924 174.369 37.9924 172.98V94.697C37.9924 93.3081 39.1288 92.1717 40.5177 92.1717H160.215C161.604 92.1717 162.74 93.3081 162.74 94.697V172.98C162.74 174.369 161.629 175.505 160.215 175.505Z" fill="#FDDFDF"/>
</svg>
