<svg width="200" height="200" viewBox="0 0 200 200" fill="none" xmlns="http://www.w3.org/2000/svg">
<path d="M100 187.461C91.2305 187.461 82.7344 185.742 74.7266 182.363C66.9922 179.102 60.0391 174.414 54.082 168.457C48.125 162.5 43.4375 155.547 40.1758 147.812C36.7969 139.805 35.0781 131.289 35.0781 122.539C35.0781 114.141 37.7344 103.301 42.9883 90.3125C47.4023 79.4336 53.4961 67.3633 60.6445 55.4492C67.2656 44.3945 74.3555 34.1602 80.6445 26.6602C83.9648 22.6953 86.9922 19.5508 89.6484 17.3047C93.5156 14.0625 96.8164 12.5391 100.02 12.5391C103.223 12.5391 106.523 14.043 110.391 17.3047C113.047 19.5508 116.074 22.6953 119.395 26.6602C125.664 34.1797 132.773 44.3945 139.395 55.4492C146.543 67.3828 152.637 79.4336 157.051 90.3125C162.305 103.281 164.961 114.121 164.961 122.539C164.961 131.309 163.242 139.805 159.863 147.812C156.602 155.547 151.914 162.48 145.957 168.457C140 174.434 133.008 179.102 125.273 182.363C117.266 185.742 108.77 187.461 100 187.461ZM100 27.0312C98.4766 28.0859 95.0977 30.957 89.2969 38.2422C83.4961 45.5664 77.0312 55.1758 71.1523 65.2539C64.7461 76.2109 59.3359 87.1484 55.4883 96.875C51.3281 107.422 49.1211 116.289 49.1211 122.52C49.1211 150.566 71.9336 173.398 100 173.398C128.066 173.398 150.879 150.586 150.879 122.539C150.879 116.309 148.672 107.441 144.512 96.8945C140.664 87.168 135.254 76.2305 128.848 65.2734C122.949 55.1758 116.504 45.5859 110.703 38.2617C104.902 30.957 101.523 28.0859 100 27.0312Z" fill="#F7C3C3"/>
<path d="M101.934 163.496C90.3125 163.496 79.3945 158.965 71.1719 150.762C62.9492 142.539 58.4375 131.621 58.4375 120C58.4375 116.113 61.582 112.969 65.4688 112.969C69.3555 112.969 72.5 116.113 72.5 120C72.5 136.23 85.7031 149.434 101.934 149.434C105.82 149.434 108.965 152.578 108.965 156.465C108.965 160.352 105.82 163.496 101.934 163.496Z" fill="#F7C3C3"/>
</svg>
