<svg width="22" height="22" viewBox="0 0 22 22" fill="none" xmlns="http://www.w3.org/2000/svg">
<g clip-path="url(#clip0_533_6229)">
<rect width="22" height="22" rx="3.66667" fill="#F2F3F5"/>
<path d="M11.0001 5.00008C10.2667 5.00008 9.66675 5.60008 9.66675 6.33341C9.66675 7.06674 10.2667 7.66673 11.0001 7.66673C11.7334 7.66673 12.3334 7.06674 12.3334 6.33341C12.3334 5.60008 11.7334 5.00008 11.0001 5.00008ZM11.0001 14.3334C10.2667 14.3334 9.66675 14.9333 9.66675 15.6667C9.66675 16.4 10.2667 17 11.0001 17C11.7334 17 12.3334 16.4 12.3334 15.6667C12.3334 14.9333 11.7334 14.3334 11.0001 14.3334ZM11.0001 9.66672C10.2667 9.66672 9.66675 10.2667 9.66675 11C9.66675 11.7334 10.2667 12.3334 11.0001 12.3334C11.7334 12.3334 12.3334 11.7334 12.3334 11C12.3334 10.2667 11.7334 9.66672 11.0001 9.66672Z" fill="#4E5969"/>
</g>
<defs>
<clipPath id="clip0_533_6229">
<rect width="22" height="22" rx="3.66667" fill="white"/>
</clipPath>
</defs>
</svg>
