<svg width="200" height="200" viewBox="0 0 200 200" fill="none" xmlns="http://www.w3.org/2000/svg">
<path d="M156.667 83.3333H155.833V64.1666C155.833 33.3333 130.833 8.33331 100 8.33331C85 8.33331 70.8333 14.1666 60.4167 24.5833C50 35 44.1667 49.1666 44.1667 64.1666V83.3333H43.3333C33.3333 83.3333 25 91.6666 25 101.667V173.333C25 183.333 33.3333 191.667 43.3333 191.667H156.667C166.667 191.667 175 183.333 175 173.333V101.667C175 91.6666 166.667 83.3333 156.667 83.3333ZM60.8333 64.1666C60.8333 53.75 65 43.75 72.5 36.25C79.5833 29.1666 89.5833 25 100 25C121.667 25 139.167 42.5 139.167 64.1666V83.3333H60.8333V64.1666Z" fill="#F7C3C3"/>
</svg>
