<svg width="200" height="200" viewBox="0 0 200 200" fill="none" xmlns="http://www.w3.org/2000/svg">
<path d="M193.516 107.578C193.066 102.793 188.828 99.1211 180.605 96.4453C180.195 86.7773 178.086 77.4023 174.336 68.5156C170.273 58.9062 164.453 50.2734 157.031 42.8516C149.609 35.4297 140.977 29.6094 131.367 25.5469C121.406 21.3281 110.84 19.1992 99.9414 19.1992C89.043 19.1992 78.4766 21.3281 68.5156 25.5469C58.9063 29.6094 50.2734 35.4297 42.8516 42.8516C35.4297 50.2734 29.6094 58.9062 25.5469 68.5156C21.3281 78.4766 19.1992 89.043 19.1992 99.9414C19.1992 103.496 19.4336 107.031 19.8828 110.508C16.2695 112.305 13.3789 114.141 11.3281 115.996C8.1836 118.828 6.73829 121.855 7.03126 125C7.6172 131.289 14.8047 135.703 28.9453 138.379C32.6563 145.215 37.3047 151.465 42.8711 157.031C50.293 164.453 58.9258 170.273 68.5352 174.336C78.4961 178.555 89.0625 180.684 99.9609 180.684C110.859 180.684 121.426 178.555 131.387 174.336C140.996 170.273 149.629 164.453 157.031 157.031C164.434 149.609 170.273 140.977 174.336 131.367C175.41 128.848 176.328 126.289 177.129 123.691C188.691 118.75 194.062 113.438 193.516 107.578ZM99.9414 28.9844C139.082 28.9844 170.918 60.8203 170.918 99.9609C170.918 106.445 170.039 112.754 168.398 118.73C166.914 119.258 165.293 119.805 163.555 120.352C147.266 125.508 125.313 129.551 101.719 131.758C78.125 133.965 55.7813 134.043 38.8281 132.012C38.0274 131.914 37.2461 131.816 36.4844 131.719C31.6797 122.168 28.9844 111.387 28.9844 99.9805C28.9844 60.8203 60.8203 28.9844 99.9414 28.9844ZM14.7852 124.277C14.7266 123.672 15.9375 121.523 21.3477 118.555C22.2266 122.246 23.3594 125.859 24.7461 129.414C16.9727 127.285 14.8633 125 14.7852 124.277ZM99.9414 170.918C75.7227 170.918 54.2969 158.711 41.4844 140.137C49.043 140.898 57.4805 141.27 66.5234 141.27C77.7734 141.27 89.9414 140.684 102.441 139.512C126.211 137.285 148.418 133.223 165.117 128.027C154.219 153.242 129.102 170.918 99.9414 170.918ZM179.492 113.848C180.02 110.84 180.371 107.812 180.547 104.746C184.551 106.367 185.703 107.812 185.742 108.32C185.801 108.926 184.57 110.996 179.492 113.848Z" fill="#F7C3C3"/>
<path d="M49.7266 91.8164C50.0391 91.8945 50.3516 91.9336 50.6445 91.9336C52.4023 91.9336 54.0039 90.7422 54.4336 88.9453C55.1367 86.0156 56.1523 83.1641 57.4219 80.4297C58.3398 78.4766 57.4805 76.1523 55.5273 75.2344C53.5742 74.3164 51.25 75.1758 50.332 77.1289C48.8477 80.3125 47.6758 83.6719 46.8359 87.0898C46.3477 89.1797 47.6172 91.2891 49.7266 91.8164ZM59.3945 69.3945C60.1367 70.0586 61.0742 70.3906 61.9922 70.3906C63.0664 70.3906 64.1406 69.9609 64.9023 69.082C73.6719 59.2773 86.25 53.6719 99.375 53.6719C101.523 53.6719 103.281 51.9141 103.281 49.7656C103.281 47.6172 101.523 45.8594 99.375 45.8594C91.543 45.8594 84.0039 47.5 76.9336 50.7227C70.1172 53.8477 64.1016 58.2617 59.082 63.8867C57.6563 65.4883 57.793 67.9492 59.3945 69.3945Z" fill="#F7C3C3"/>
</svg>
