<svg width="200" height="200" viewBox="0 0 200 200" fill="none" xmlns="http://www.w3.org/2000/svg">
<path d="M40.8125 98.6719C40.8125 114.054 46.923 128.806 57.7997 139.683C68.6765 150.559 83.4285 156.67 98.8106 156.67C114.193 156.67 128.945 150.559 139.821 139.683C150.698 128.806 156.809 114.054 156.809 98.6719C156.809 83.2898 150.698 68.5378 139.821 57.6611C128.945 46.7843 114.193 40.6738 98.8106 40.6738C83.4285 40.6738 68.6765 46.7843 57.7997 57.6611C46.923 68.5378 40.8125 83.2898 40.8125 98.6719Z" fill="#EDB2AE"/>
<path d="M98.8086 186.15C76.3965 186.15 53.9863 177.617 36.9238 160.557C2.80078 126.432 2.80078 70.9102 36.9238 36.7871C53.4551 20.2578 75.4336 11.1543 98.8086 11.1543C122.184 11.1543 144.164 20.2598 160.693 36.7871C160.693 36.7852 160.695 36.7891 160.693 36.7871C177.225 53.3184 186.328 75.2949 186.328 98.6719C186.328 122.049 177.225 144.027 160.693 160.557C143.633 177.617 121.221 186.15 98.8086 186.15ZM98.8086 21.666C78.2383 21.666 58.9004 29.6758 44.3574 44.2207C14.334 74.2441 14.334 123.098 44.3574 153.125C74.3809 183.148 123.236 183.15 153.262 153.125C167.807 138.578 175.816 119.24 175.816 98.6738C175.816 78.1035 167.805 58.7656 153.262 44.2227C138.717 29.6758 119.379 21.666 98.8086 21.666Z" fill="#4F2033"/>
<path d="M98.8086 161.895C82.6074 161.895 66.416 155.73 54.082 143.398C42.1328 131.451 35.5547 115.566 35.5547 98.6699C35.5547 81.7754 42.1328 65.8906 54.082 53.9434C78.7441 29.2793 118.875 29.2793 143.537 53.9434C168.201 78.6055 168.201 118.736 143.537 143.398C131.207 155.73 115.006 161.895 98.8086 161.895ZM98.8086 45.9531C85.3027 45.9531 71.7969 51.0937 61.5137 61.375C51.5527 71.3359 46.0664 84.5801 46.0664 98.6699C46.0664 112.76 51.5527 126.004 61.5137 135.967C82.0801 156.529 115.539 156.529 136.104 135.967C156.668 115.402 156.662 81.9414 136.104 61.377C125.822 51.0937 112.316 45.9531 98.8086 45.9531Z" fill="#4F2033"/>
<path d="M82.4531 98.6719C82.4531 100.82 82.8762 102.947 83.6983 104.932C84.5203 106.916 85.7252 108.719 87.2441 110.238C88.763 111.757 90.5663 112.962 92.5508 113.784C94.5354 114.606 96.6625 115.029 98.8105 115.029C100.959 115.029 103.086 114.606 105.07 113.784C107.055 112.962 108.858 111.757 110.377 110.238C111.896 108.719 113.101 106.916 113.923 104.932C114.745 102.947 115.168 100.82 115.168 98.6719C115.168 94.3336 113.445 90.173 110.377 87.1054C107.309 84.0378 103.149 82.3145 98.8105 82.3145C94.4723 82.3145 90.3117 84.0378 87.2441 87.1054C84.1765 90.173 82.4531 94.3336 82.4531 98.6719Z" fill="#4F2033"/>
<path d="M131.854 75.0977C131.104 74.0234 129.461 73.7246 128.057 74.4121L91.8242 92.166C90.9883 92.5762 90.3086 93.2735 89.961 94.0762C89.5664 94.9844 89.6348 95.957 90.1387 96.6797L97.2344 106.84L97.336 106.975C97.8184 107.58 98.5762 107.924 99.4395 107.924C100.17 107.924 100.932 107.676 101.582 107.219C101.875 107.016 102.137 106.775 102.283 106.59L131.188 78.8984C132.344 77.7969 132.621 76.1973 131.854 75.0977Z" fill="#4F2033"/>
</svg>
