<svg width="200" height="200" viewBox="0 0 200 200" fill="none" xmlns="http://www.w3.org/2000/svg">
<g clip-path="url(#clip0_556_6678)">
<path d="M0 100C0 126.522 10.5357 151.957 29.2893 170.711C48.043 189.464 73.4783 200 100 200C126.522 200 151.957 189.464 170.711 170.711C189.464 151.957 200 126.522 200 100C200 73.4783 189.464 48.043 170.711 29.2893C151.957 10.5357 126.522 0 100 0C73.4783 0 48.043 10.5357 29.2893 29.2893C10.5357 48.043 0 73.4783 0 100Z" fill="#FDEBED"/>
<path d="M137.75 95.5L130 100L137.75 104.5C142.5 107.25 144.25 113.25 141.5 118.25L136.5 127C133.75 131.75 127.5 133.5 122.75 130.75L115 126V135C115 140.5 110.5 145 105 145H95C89.5 145 85 140.5 85 135V126L77.25 130.5C72.5 133.25 66.25 131.5 63.5 126.75L58.5 118C55.75 113.25 57.5 107 62.25 104.25L70 100L62.25 95.5C57.5 92.75 55.75 86.75 58.5 81.75L63.5 73C66.25 68.25 72.5 66.5 77.25 69.25L85 73.75V65C85 59.5 89.5 55 95 55H105C110.5 55 115 59.5 115 65V74L122.75 69.5C127.5 66.75 133.75 68.5 136.5 73.25L141.5 82C144.25 86.75 142.5 92.75 137.75 95.5ZM100 77.5C89 77.5 80 86.5 80 97.5C80 108.5 89 117.5 100 117.5C111 117.5 120 108.5 120 97.5C120 86.5 111 77.5 100 77.5ZM100 112.5C91.75 112.5 85 105.75 85 97.5C85 89.25 91.75 82.5 100 82.5C108.25 82.5 115 89.25 115 97.5C115 105.75 108.25 112.5 100 112.5Z" fill="#EC3A4E"/>
</g>
<defs>
<clipPath id="clip0_556_6678">
<rect width="200" height="200" fill="white"/>
</clipPath>
</defs>
</svg>
