<svg width="200" height="200" viewBox="0 0 200 200" fill="none" xmlns="http://www.w3.org/2000/svg">
<path d="M52.7711 126.622V138.851L31.6406 159.981L40.0191 168.359L61.1498 147.229L64.6195 147.228L73.3777 147.229H90.1346L101.984 135.38L160.633 76.7299C170.935 66.4287 170.935 49.6676 160.633 39.3664C150.332 29.0652 133.571 29.0652 123.27 39.3664L64.6199 98.0166L52.7711 109.865V126.622ZM131.648 47.7449C137.329 42.0638 146.574 42.0638 152.255 47.7449C157.936 53.426 157.936 62.6705 152.255 68.3515L138.296 82.3103L126.538 70.5519L118.159 78.9304L129.918 90.6888L121.539 99.0674L109.781 87.309L101.402 95.6875L113.161 107.446L104.782 115.824L93.0238 104.066L84.6453 112.445L96.4037 124.203L85.2266 135.38L64.6197 135.38V114.773L131.648 47.7449Z" fill="#F7C3C3"/>
</svg>
